<?xml version="1.0" encoding="UTF-8" standalone="no"?>
<!-- Created with Inkscape (http://www.inkscape.org/) -->

<svg
   width="128"
   height="128"
   viewBox="0 0 33.866666 33.866668"
   version="1.1"
   id="svg8"
   inkscape:version="1.3.2 (091e20e, 2023-11-25, custom)"
   sodipodi:docname="bot.svg"
   inkscape:export-filename="bot.png"
   inkscape:export-xdpi="192"
   inkscape:export-ydpi="192"
   xmlns:inkscape="http://www.inkscape.org/namespaces/inkscape"
   xmlns:sodipodi="http://sodipodi.sourceforge.net/DTD/sodipodi-0.dtd"
   xmlns:xlink="http://www.w3.org/1999/xlink"
   xmlns="http://www.w3.org/2000/svg"
   xmlns:svg="http://www.w3.org/2000/svg"
   xmlns:rdf="http://www.w3.org/1999/02/22-rdf-syntax-ns#"
   xmlns:cc="http://creativecommons.org/ns#"
   xmlns:dc="http://purl.org/dc/elements/1.1/">
  <defs
     id="defs2">
    <linearGradient
       id="linearGradient10"
       inkscape:collect="always">
      <stop
         style="stop-color:#dce4e2;stop-opacity:1;"
         offset="0"
         id="stop10" />
      <stop
         style="stop-color:#c4cfce;stop-opacity:1;"
         offset="1"
         id="stop11" />
    </linearGradient>
    <linearGradient
       inkscape:collect="always"
       xlink:href="#linearGradient10"
       id="linearGradient11"
       x1="12.700001"
       y1="269.48331"
       x2="19.050001"
       y2="290.64999"
       gradientUnits="userSpaceOnUse" />
  </defs>
  <sodipodi:namedview
     id="base"
     pagecolor="#ffffff"
     bordercolor="#666666"
     borderopacity="1.0"
     inkscape:pageopacity="0.0"
     inkscape:pageshadow="2"
     inkscape:zoom="5.6"
     inkscape:cx="44.553571"
     inkscape:cy="70.089286"
     inkscape:document-units="mm"
     inkscape:current-layer="path1"
     showgrid="true"
     units="px"
     inkscape:snap-nodes="false"
     inkscape:window-width="1920"
     inkscape:window-height="1017"
     inkscape:window-x="1912"
     inkscape:window-y="-8"
     inkscape:window-maximized="1"
     inkscape:showpageshadow="0"
     inkscape:pagecheckerboard="0"
     inkscape:deskcolor="#d1d1d1">
    <inkscape:grid
       type="xygrid"
       id="grid20"
       spacingx="0.52916667"
       spacingy="0.52916667"
       empspacing="4"
       originx="0"
       originy="0"
       units="px"
       visible="true" />
  </sodipodi:namedview>
  <metadata
     id="metadata5">
    <rdf:RDF>
      <cc:Work
         rdf:about="">
        <dc:format>image/svg+xml</dc:format>
        <dc:type
           rdf:resource="http://purl.org/dc/dcmitype/StillImage" />
      </cc:Work>
    </rdf:RDF>
  </metadata>
  <g
     inkscape:label="レイヤー 1"
     inkscape:groupmode="layer"
     id="layer1"
     transform="translate(0,-263.13332)">
    <g
       id="path1">
      <path
         style="fill:url(#linearGradient11);stroke:#000000;stroke-width:0.264583px;stroke-linecap:butt;stroke-linejoin:miter;stroke-opacity:1"
         d="m 10.583334,271.59999 v 10.58333 l 4.233334,8.46667 h 4.233333 l 4.233334,-8.46667 v -10.58333 l -2.116667,-2.11667 h -8.466667 z"
         id="path10" />
      <g
         id="g12">
        <path
           id="ellipse11"
           style="fill:#c6d4d6;fill-opacity:1;stroke:#000000;stroke-width:0.264583;stroke-linejoin:bevel;stroke-dasharray:none;stroke-opacity:1"
           d="M 7.6729167 264.72082 A 7.1437502 5.5562491 0 0 0 0.52916667 270.27707 A 7.1437502 5.5562491 0 0 0 7.6729167 275.83332 A 7.1437502 5.5562491 0 0 0 14.816667 270.27707 A 7.1437502 5.5562491 0 0 0 7.6729167 264.72082 z M 7.6729167 265.77915 A 6.0854173 4.4979167 0 0 1 13.758333 270.27707 A 6.0854173 4.4979167 0 0 1 7.6729167 274.77499 A 6.0854173 4.4979167 0 0 1 1.5875 270.27707 A 6.0854173 4.4979167 0 0 1 7.6729167 265.77915 z " />
        <ellipse
           style="fill:#c2f1f7;fill-opacity:0.57504219;stroke:#000000;stroke-width:0.264583;stroke-linejoin:bevel;stroke-dasharray:none;stroke-opacity:1"
           id="path11"
           cx="7.6729169"
           cy="270.27707"
           rx="6.0854173"
           ry="4.4979167" />
      </g>
      <g
         id="g13"
         transform="translate(18.256252)">
        <path
           id="path12"
           style="fill:#c6d4d6;fill-opacity:1;stroke:#000000;stroke-width:0.264583;stroke-linejoin:bevel;stroke-dasharray:none;stroke-opacity:1"
           d="m 7.6729167,264.72082 a 7.1437502,5.5562491 0 0 0 -7.14375003,5.55625 7.1437502,5.5562491 0 0 0 7.14375003,5.55625 7.1437502,5.5562491 0 0 0 7.1437503,-5.55625 7.1437502,5.5562491 0 0 0 -7.1437503,-5.55625 z m 0,1.05833 a 6.0854173,4.4979167 0 0 1 6.0854163,4.49792 6.0854173,4.4979167 0 0 1 -6.0854163,4.49792 6.0854173,4.4979167 0 0 1 -6.0854167,-4.49792 6.0854173,4.4979167 0 0 1 6.0854167,-4.49792 z" />
        <ellipse
           style="fill:#c2f1f7;fill-opacity:0.575042;stroke:#000000;stroke-width:0.264583;stroke-linejoin:bevel;stroke-dasharray:none;stroke-opacity:1"
           id="ellipse12"
           cx="7.6729169"
           cy="270.27707"
           rx="6.0854173"
           ry="4.4979167" />
      </g>
      <g
         id="g14"
         transform="translate(0.26458374,18.520835)">
        <path
           id="path13"
           style="fill:#c6d4d6;fill-opacity:1;stroke:#000000;stroke-width:0.264583;stroke-linejoin:bevel;stroke-dasharray:none;stroke-opacity:1"
           d="m 7.6729167,264.72082 a 7.1437502,5.5562491 0 0 0 -7.14375003,5.55625 7.1437502,5.5562491 0 0 0 7.14375003,5.55625 7.1437502,5.5562491 0 0 0 7.1437503,-5.55625 7.1437502,5.5562491 0 0 0 -7.1437503,-5.55625 z m 0,1.05833 a 6.0854173,4.4979167 0 0 1 6.0854163,4.49792 6.0854173,4.4979167 0 0 1 -6.0854163,4.49792 6.0854173,4.4979167 0 0 1 -6.0854167,-4.49792 6.0854173,4.4979167 0 0 1 6.0854167,-4.49792 z" />
        <ellipse
           style="fill:#c2f1f7;fill-opacity:0.575042;stroke:#000000;stroke-width:0.264583;stroke-linejoin:bevel;stroke-dasharray:none;stroke-opacity:1"
           id="ellipse13"
           cx="7.6729169"
           cy="270.27707"
           rx="6.0854173"
           ry="4.4979167" />
      </g>
      <g
         id="g15"
         transform="translate(18.256252,18.520835)">
        <path
           id="path14"
           style="fill:#c6d4d6;fill-opacity:1;stroke:#000000;stroke-width:0.264583;stroke-linejoin:bevel;stroke-dasharray:none;stroke-opacity:1"
           d="m 7.6729167,264.72082 a 7.1437502,5.5562491 0 0 0 -7.14375003,5.55625 7.1437502,5.5562491 0 0 0 7.14375003,5.55625 7.1437502,5.5562491 0 0 0 7.1437503,-5.55625 7.1437502,5.5562491 0 0 0 -7.1437503,-5.55625 z m 0,1.05833 a 6.0854173,4.4979167 0 0 1 6.0854163,4.49792 6.0854173,4.4979167 0 0 1 -6.0854163,4.49792 6.0854173,4.4979167 0 0 1 -6.0854167,-4.49792 6.0854173,4.4979167 0 0 1 6.0854167,-4.49792 z" />
        <ellipse
           style="fill:#c2f1f7;fill-opacity:0.575042;stroke:#000000;stroke-width:0.264583;stroke-linejoin:bevel;stroke-dasharray:none;stroke-opacity:1"
           id="ellipse14"
           cx="7.6729169"
           cy="270.27707"
           rx="6.0854173"
           ry="4.4979167" />
      </g>
    </g>
  </g>
</svg>
